<svg width="800" height="800" viewBox="0 0 1024 1024" class="icon" xmlns="http://www.w3.org/2000/svg"><path d="M954.027 719.36H867.84c-29.013 0-52.907-23.893-52.907-52.907v-96.426c0-29.014 23.894-52.907 52.907-52.907h86.187c29.013 0 52.906 23.893 52.906 52.907V665.6c0 29.867-23.893 53.76-52.906 53.76z" fill="#FCE4EC"/><path d="M954.027 736.427H867.84c-38.4 0-69.973-31.574-69.973-69.974v-96.426c0-38.4 31.573-69.974 69.973-69.974h86.187c38.4 0 69.973 31.574 69.973 69.974V665.6c0 39.253-31.573 70.827-69.973 70.827zm-86.187-202.24c-19.627 0-35.84 16.213-35.84 35.84V665.6c0 19.627 16.213 35.84 35.84 35.84h86.187c19.626 0 35.84-16.213 35.84-35.84v-95.573c0-19.627-16.214-35.84-35.84-35.84H867.84z" fill="#EC407A"/><path d="M156.16 719.36H69.973c-29.013 0-52.906-23.893-52.906-52.907v-96.426c0-29.014 23.893-52.907 52.906-52.907h86.187c29.013 0 52.907 23.893 52.907 52.907V665.6c0 29.867-23.894 53.76-52.907 53.76z" fill="#FCE4EC"/><path d="M156.16 736.427H69.973C31.573 736.427 0 704.853 0 666.453v-96.426c0-38.4 31.573-69.974 69.973-69.974h86.187c38.4 0 69.973 31.574 69.973 69.974V665.6c0 39.253-31.573 70.827-69.973 70.827zm-86.187-202.24c-19.626 0-35.84 16.213-35.84 35.84V665.6c0 19.627 16.214 35.84 35.84 35.84h86.187c19.627 0 35.84-16.213 35.84-35.84v-95.573c0-19.627-16.213-35.84-35.84-35.84H69.973z" fill="#EC407A"/><path d="M112.64 581.12V436.053l34.133 17.92c220.16 115.2 482.987 119.467 706.56 9.387l57.174-28.16v145.067c0 175.786-142.507 317.44-317.44 317.44H430.933C255.147 898.56 112.64 756.053 112.64 581.12z" fill="#FCE4EC"/><path d="M593.067 915.627H430.933c-184.32 0-334.506-150.187-334.506-334.507V436.053c0-5.973 3.413-11.093 8.533-14.506s11.093-3.414 17.067-.854l34.133 17.92c215.04 112.64 473.6 116.054 691.2 9.387l57.173-28.16c5.12-2.56 11.947-2.56 16.214.853 5.12 3.414 7.68 8.534 7.68 14.507v145.067c0 185.173-150.187 335.36-335.36 335.36zm-463.36-451.414v116.054c0 165.546 134.826 300.373 300.373 300.373h162.987c165.546 0 300.373-134.827 300.373-300.373V463.36l-32.427 16.213c-226.986 111.787-496.64 107.52-721.066-10.24l-10.24-5.12z" fill="#EC407A"/><path d="M113.493 394.24a398.507 136.533 0 10797.014 0 398.507 136.533 0 10-797.014 0z" fill="#F48FB1"/><path d="M512 547.84c-108.373 0-209.92-14.507-287.573-40.96-83.627-29.013-128-67.413-128-112.64s44.373-83.627 128-112.64c76.8-26.453 179.2-40.96 287.573-40.96s209.92 14.507 287.573 40.96c83.627 29.013 128 67.413 128 112.64s-44.373 83.627-128 112.64c-77.653 26.453-179.2 40.96-287.573 40.96zm0-273.067c-224.427 0-381.44 63.147-381.44 119.467S286.72 513.707 512 513.707c224.427 0 381.44-63.147 381.44-119.467S736.427 274.773 512 274.773z" fill="#EC407A"/><path d="M938.667 240.64L520.533 478.72c-5.12 38.4 3.414 132.267-133.12 98.133l-102.4-34.133c68.267-128 136.534-93.867 189.44-108.373l392.534-297.814c29.013-19.626 68.266-11.946 87.893 16.214 20.48 29.013 12.8 68.266-16.213 87.893z" fill="#FFF"/><path d="M439.467 601.6c-16.214 0-34.987-2.56-56.32-7.68h-.854l-102.4-34.133c-5.12-1.707-8.533-5.12-10.24-10.24-1.706-4.267-1.706-10.24.854-14.507C327.68 428.373 386.56 424.96 434.347 422.4c11.946-.853 23.04-1.707 33.28-3.413L857.6 123.733c17.92-12.8 40.107-17.066 60.587-12.8 21.333 4.267 39.253 16.214 51.2 33.28 11.946 17.92 16.213 39.254 12.8 59.734-4.267 21.333-16.214 39.253-33.28 51.2l-.854.853-411.306 232.96v4.267c-2.56 27.306-5.974 68.266-38.4 91.306-15.36 11.094-34.987 17.067-58.88 17.067zm-46.934-40.96c40.107 10.24 69.12 8.533 86.187-3.413 19.627-14.507 22.187-42.667 23.893-66.56.854-5.12.854-10.24 1.707-14.507.853-5.12 3.413-10.24 8.533-12.8l417.28-237.227c10.24-6.826 16.214-17.066 18.774-29.013 2.56-11.947 0-24.747-7.68-34.133-6.827-10.24-17.067-17.067-29.867-19.627-11.947-2.56-24.747 0-34.133 7.68L484.693 448c-1.706 1.707-3.413 2.56-5.973 2.56-14.507 4.267-29.013 5.12-43.52 5.973-40.107 2.56-81.92 5.12-125.44 76.8l82.773 27.307zm546.134-320z" fill="#EC407A"/><path d="M854.187 464.213c-223.574 109.227-486.4 105.814-706.56-9.386l-34.134-17.92v85.333l34.134 17.92c220.16 115.2 482.986 119.467 706.56 9.387l57.173-28.16v-85.334l-57.173 28.16z" fill="#FFEE58"/><path d="M510.293 645.973c-128 0-255.146-30.72-371.2-91.306l-34.133-17.92c-5.973-2.56-9.387-8.534-9.387-15.36v-85.334c0-5.973 3.414-11.093 8.534-14.506s11.093-3.414 17.066-.854l34.134 17.92c215.04 112.64 473.6 116.054 691.2 9.387l57.173-28.16c5.12-2.56 11.947-2.56 16.213.853 5.12 3.414 7.68 8.534 7.68 14.507v85.333c0 6.827-3.413 12.8-9.386 15.36l-57.174 28.16c-110.08 54.614-230.4 81.92-350.72 81.92zM129.707 511.147l25.6 13.653c215.04 112.64 473.6 116.053 691.2 9.387l46.933-23.04v-46.934l-32.427 16.214c-226.986 110.933-496.64 106.666-721.066-11.094l-9.387-5.12v46.934zm724.48-46.934z" fill="#EC407A"/><path d="M593.067 915.627H430.933c-184.32 0-334.506-150.187-334.506-334.507V436.053c0-5.973 3.413-11.093 8.533-14.506s11.093-3.414 17.067-.854l34.133 17.92c215.04 112.64 473.6 116.054 691.2 9.387l57.173-28.16c5.12-2.56 11.947-2.56 16.214.853 5.12 3.414 7.68 8.534 7.68 14.507v145.067c0 185.173-150.187 335.36-335.36 335.36zm-463.36-451.414v116.054c0 165.546 134.826 300.373 300.373 300.373h162.987c165.546 0 300.373-134.827 300.373-300.373V463.36l-32.427 16.213c-226.986 111.787-496.64 107.52-721.066-10.24l-10.24-5.12z" fill="#EC407A"/><path d="M843.093 461.653V581.12c0 175.787-142.506 317.44-317.44 317.44h51.2c175.787 0 317.44-142.507 317.44-317.44V436.053l-51.2 25.6z" fill="#F8BBD0"/><path d="M843.093 461.653v81.92l51.2-21.333v-86.187z" fill="#FBC02D"/><path d="M484.693 543.573c-116.053-3.413-231.253-33.28-337.066-88.746l-34.134-17.92v26.453c116.054 57.173 244.054 84.48 371.2 80.213z" fill="#F06292"/><path d="M649.387 700.587a19.627 19.627 0 1039.253 0 19.627 19.627 0 10-39.253 0z" fill="#F48FB1"/><path d="M669.013 737.28c-20.48 0-36.693-16.213-36.693-36.693s16.213-36.694 36.693-36.694 36.694 16.214 36.694 36.694-16.214 36.693-36.694 36.693zm0-39.253c-1.706 0-2.56.853-2.56 2.56s.854 2.56 2.56 2.56 2.56-.854 2.56-2.56-.853-2.56-2.56-2.56z" fill="#EC407A"/><path d="M335.36 700.587a19.627 19.627 0 1039.253 0 19.627 19.627 0 10-39.253 0z" fill="#F48FB1"/><path d="M354.987 737.28c-20.48 0-36.694-16.213-36.694-36.693s16.214-36.694 36.694-36.694 36.693 16.214 36.693 36.694-16.213 36.693-36.693 36.693zm0-39.253c-1.707 0-2.56.853-2.56 2.56s.853 2.56 2.56 2.56c1.706 0 2.56-.854 2.56-2.56s-.854-2.56-2.56-2.56zM512 855.04c-50.347 0-101.547-13.653-145.92-41.813-7.68-5.12-10.24-15.36-5.12-23.894 5.12-7.68 15.36-10.24 23.893-5.12 77.654 48.64 177.494 48.64 255.147 0 7.68-5.12 18.773-2.56 23.893 5.12 5.12 7.68 2.56 18.774-5.12 23.894C613.547 840.533 562.347 855.04 512 855.04z" fill="#EC407A"/><path d="M593.067 915.627H430.933c-184.32 0-334.506-150.187-334.506-334.507V436.053c0-5.973 3.413-11.093 8.533-14.506s11.093-3.414 17.067-.854l34.133 17.92c215.04 112.64 473.6 116.054 691.2 9.387l57.173-28.16c5.12-2.56 11.947-2.56 16.214.853 5.12 3.414 7.68 8.534 7.68 14.507v145.067c0 185.173-150.187 335.36-335.36 335.36zm-463.36-451.414v116.054c0 165.546 134.826 300.373 300.373 300.373h162.987c165.546 0 300.373-134.827 300.373-300.373V463.36l-32.427 16.213c-226.986 111.787-496.64 107.52-721.066-10.24l-10.24-5.12z" fill="#EC407A"/><path d="M510.293 645.973c-128 0-255.146-30.72-371.2-91.306l-34.133-17.92c-5.973-2.56-9.387-8.534-9.387-15.36v-85.334c0-5.973 3.414-11.093 8.534-14.506s11.093-3.414 17.066-.854l34.134 17.92c215.04 112.64 473.6 116.054 691.2 9.387l57.173-28.16c5.12-2.56 11.947-2.56 16.213.853 5.12 3.414 7.68 8.534 7.68 14.507v85.333c0 6.827-3.413 12.8-9.386 15.36l-57.174 28.16c-110.08 54.614-230.4 81.92-350.72 81.92zM129.707 511.147l25.6 13.653c215.04 112.64 473.6 116.053 691.2 9.387l46.933-23.04v-46.934l-32.427 16.214c-226.986 110.933-496.64 106.666-721.066-11.094l-9.387-5.12v46.934zm724.48-46.934z" fill="#EC407A"/></svg>