<svg width="800" height="800" viewBox="0 0 1024 1024" class="icon" xmlns="http://www.w3.org/2000/svg"><path d="M829.315 672.734h-639.17c-56.98 0-103.173 46.41-103.173 103.663v60.359h845.517v-60.36c0-57.252-46.206-103.662-103.174-103.662z" fill="#FFCA6C"/><path d="M386.321 672.734H190.145c-56.98 0-103.173 46.41-103.173 103.663v60.359h196.175v-60.36c0-57.252 46.194-103.662 103.174-103.662z" fill="#E5B05C"/><path d="M855.45 672.734c0-191.852-154.784-347.386-345.726-347.386-190.93 0-345.713 155.522-345.713 347.386" fill="#FFCA6C"/><path d="M566.977 330.126a346.613 346.613 0 00-57.253-4.767c-190.93 0-345.713 155.523-345.713 347.386h114.494c0-172.27 124.78-315.21 288.472-342.619z" fill="#E5B05C"/><path d="M447.295 211.274a62.714 62.43 90 10124.86 0 62.714 62.43 90 10-124.86 0z" fill="#FFCA6C"/><path d="M496.344 211.285a62.726 62.726 0 0137.9-57.685 61.872 61.872 0 00-24.52-5.029c-34.474 0-62.418 28.08-62.418 62.726 0 34.634 27.955 62.714 62.418 62.714a62.028 62.028 0 0024.52-5.029 62.771 62.771 0 01-37.9-57.697z" fill="#E5B05C"/><path d="M783.792 588.561a14.162 14.162 0 01-13.323-9.432c-32.028-89.828-109.454-158.14-202.047-178.301-7.645-1.661-12.492-9.239-10.831-16.908s9.193-12.55 16.827-10.888a304.856 304.856 0 01136.966 69.734 308.35 308.35 0 0185.732 126.771 14.245 14.245 0 01-13.324 19.024zm85.106 156.922a14.108 14.108 0 01-11.287-5.643c-2.787-3.71-9.523-6.27-11.65-6.781a14.222 14.222 0 016.61-27.66c1.82.444 18.125 4.665 27.614 17.283a14.245 14.245 0 01-11.287 22.801z" fill="#FFF"/><path d="M869.513 665.646c-3.687-191.386-156.08-346.795-345.646-354.202v-24.565a76.937 76.937 0 0062.419-75.594 77.369 77.369 0 00-9.512-37.182 14.12 14.12 0 00-19.229-5.564 14.256 14.256 0 00-5.53 19.32c3.926 7.122 5.985 15.212 5.985 23.426 0 26.75-21.652 48.504-48.276 48.504-26.624 0-48.275-21.755-48.275-48.504s21.651-48.503 48.264-48.503c6.588 0 12.97 1.308 18.967 3.88a14.12 14.12 0 0018.568-7.487 14.222 14.222 0 00-7.44-18.66 75.776 75.776 0 00-30.095-6.166c-42.211 0-76.561 34.509-76.561 76.936a76.97 76.97 0 0062.418 75.606v24.553a354.805 354.805 0 00-135.213 32.222 14.234 14.234 0 00-6.986 18.83 14.108 14.108 0 0018.74 7.031 327.555 327.555 0 01137.613-29.957c178.279 0 324.13 142.12 331.276 319.533a116.964 116.964 0 00-11.685-.591h-639.17c-3.948 0-7.839.204-11.685.591A332.63 332.63 0 01328.693 393.57a14.245 14.245 0 004.107-19.672 14.108 14.108 0 00-19.581-4.13C212.9 435.574 152.269 545.78 149.97 665.645a118.044 118.044 0 00-77.152 110.75v60.36c0 7.84 6.337 14.21 14.154 14.21h845.517c7.805 0 14.142-6.37 14.142-14.21v-60.36c0-50.824-32.176-94.23-77.118-110.75zM101.114 822.534v-46.137c0-49.334 39.936-89.452 89.031-89.452h639.158c44.283 0 81.101 32.643 87.905 75.241h-111.32c-7.817 0-14.143 6.372-14.143 14.21 0 7.851 6.338 14.223 14.143 14.223h112.458v31.915H101.114z"/><path d="M756.838 762.186H328.636c-7.817 0-14.154 6.372-14.154 14.21 0 7.851 6.337 14.223 14.154 14.223h428.191c7.817 0 14.143-6.372 14.143-14.222a14.165 14.165 0 00-14.132-14.211zm-473.69 0H162.633c-7.817 0-14.154 6.372-14.154 14.21 0 7.851 6.337 14.223 14.154 14.223h120.502c7.817 0 14.154-6.372 14.154-14.222 0-7.84-6.326-14.211-14.143-14.211z"/></svg>