<?xml version="1.0" encoding="utf-8"?>
<!-- Uploaded to: SVG Repo, www.svgrepo.com, Generator: SVG Repo Mixer Tools -->
<svg width="800px" height="800px" viewBox="0 0 1024 1024" class="icon" version="1.1" xmlns="http://www.w3.org/2000/svg">
    <path d="M954.026667 719.36h-86.186667c-29.013333 0-52.906667-23.893333-52.906667-52.906667V570.026667c0-29.013333 23.893333-52.906667 52.906667-52.906667h86.186667c29.013333 0 52.906667 23.893333 52.906666 52.906667V665.6c0 29.866667-23.893333 53.76-52.906666 53.76z"
          fill="#FCE4EC"/>
    <path d="M954.026667 736.426667h-86.186667c-38.4 0-69.973333-31.573333-69.973333-69.973334V570.026667c0-38.4 31.573333-69.973333 69.973333-69.973334h86.186667c38.4 0 69.973333 31.573333 69.973333 69.973334V665.6c0 39.253333-31.573333 70.826667-69.973333 70.826667z m-86.186667-202.24c-19.626667 0-35.84 16.213333-35.84 35.84V665.6c0 19.626667 16.213333 35.84 35.84 35.84h86.186667c19.626667 0 35.84-16.213333 35.84-35.84V570.026667c0-19.626667-16.213333-35.84-35.84-35.84h-86.186667z"
          fill="#EC407A"/>
    <path d="M156.16 719.36H69.973333c-29.013333 0-52.906667-23.893333-52.906666-52.906667V570.026667c0-29.013333 23.893333-52.906667 52.906666-52.906667h86.186667c29.013333 0 52.906667 23.893333 52.906667 52.906667V665.6c0 29.866667-23.893333 53.76-52.906667 53.76z"
          fill="#FCE4EC"/>
    <path d="M156.16 736.426667H69.973333c-38.4 0-69.973333-31.573333-69.973333-69.973334V570.026667c0-38.4 31.573333-69.973333 69.973333-69.973334h86.186667c38.4 0 69.973333 31.573333 69.973333 69.973334V665.6c0 39.253333-31.573333 70.826667-69.973333 70.826667zM69.973333 534.186667c-19.626667 0-35.84 16.213333-35.84 35.84V665.6c0 19.626667 16.213333 35.84 35.84 35.84h86.186667c19.626667 0 35.84-16.213333 35.84-35.84V570.026667c0-19.626667-16.213333-35.84-35.84-35.84H69.973333z"
          fill="#EC407A"/>
    <path d="M112.64 581.12v-145.066667l34.133333 17.92c220.16 115.2 482.986667 119.466667 706.56 9.386667l57.173334-28.16v145.066667c0 175.786667-142.506667 317.44-317.44 317.44h-162.133334c-175.786667 0.853333-318.293333-141.653333-318.293333-316.586667z"
          fill="#FCE4EC"/>
    <path d="M593.066667 915.626667h-162.133334c-184.32 0-334.506667-150.186667-334.506666-334.506667v-145.066667c0-5.973333 3.413333-11.093333 8.533333-14.506666s11.093333-3.413333 17.066667-0.853334l34.133333 17.92c215.04 112.64 473.6 116.053333 691.2 9.386667l57.173333-28.16c5.12-2.56 11.946667-2.56 16.213334 0.853333 5.12 3.413333 7.68 8.533333 7.68 14.506667v145.066667c0 185.173333-150.186667 335.36-335.36 335.36zM129.706667 464.213333V580.266667c0 165.546667 134.826667 300.373333 300.373333 300.373333h162.986667c165.546667 0 300.373333-134.826667 300.373333-300.373333V463.36l-32.426667 16.213333C634.026667 591.36 364.373333 587.093333 139.946667 469.333333l-10.24-5.12z"
          fill="#EC407A"/>
    <path d="M113.493333 394.24a398.506667 136.533333 0 1 0 797.013334 0 398.506667 136.533333 0 1 0-797.013334 0Z"
          fill="#F48FB1"/>
    <path d="M512 547.84c-108.373333 0-209.92-14.506667-287.573333-40.96-83.626667-29.013333-128-67.413333-128-112.64s44.373333-83.626667 128-112.64c76.8-26.453333 179.2-40.96 287.573333-40.96s209.92 14.506667 287.573333 40.96c83.626667 29.013333 128 67.413333 128 112.64s-44.373333 83.626667-128 112.64c-77.653333 26.453333-179.2 40.96-287.573333 40.96z m0-273.066667c-224.426667 0-381.44 63.146667-381.44 119.466667s156.16 119.466667 381.44 119.466667c224.426667 0 381.44-63.146667 381.44-119.466667s-157.013333-119.466667-381.44-119.466667z"
          fill="#EC407A"/>
    <path d="M938.666667 240.64L520.533333 478.72c-5.12 38.4 3.413333 132.266667-133.12 98.133333l-102.4-34.133333c68.266667-128 136.533333-93.866667 189.44-108.373333l392.533334-297.813334c29.013333-19.626667 68.266667-11.946667 87.893333 16.213334 20.48 29.013333 12.8 68.266667-16.213333 87.893333z"
          fill="#FFFFFF"/>
    <path d="M439.466667 601.6c-16.213333 0-34.986667-2.56-56.32-7.68h-0.853334l-102.4-34.133333c-5.12-1.706667-8.533333-5.12-10.24-10.24-1.706667-4.266667-1.706667-10.24 0.853334-14.506667 57.173333-106.666667 116.053333-110.08 163.84-112.64 11.946667-0.853333 23.04-1.706667 33.28-3.413333l389.973333-295.253334c17.92-12.8 40.106667-17.066667 60.586667-12.8 21.333333 4.266667 39.253333 16.213333 51.2 33.28 11.946667 17.92 16.213333 39.253333 12.8 59.733334-4.266667 21.333333-16.213333 39.253333-33.28 51.2l-0.853334 0.853333-411.306666 232.96v4.266667c-2.56 27.306667-5.973333 68.266667-38.4 91.306666-15.36 11.093333-34.986667 17.066667-58.88 17.066667zM392.533333 560.64c40.106667 10.24 69.12 8.533333 86.186667-3.413333 19.626667-14.506667 22.186667-42.666667 23.893333-66.56 0.853333-5.12 0.853333-10.24 1.706667-14.506667 0.853333-5.12 3.413333-10.24 8.533333-12.8L930.133333 226.133333c10.24-6.826667 16.213333-17.066667 18.773334-29.013333 2.56-11.946667 0-24.746667-7.68-34.133333-6.826667-10.24-17.066667-17.066667-29.866667-19.626667-11.946667-2.56-24.746667 0-34.133333 7.68l-392.533334 296.96c-1.706667 1.706667-3.413333 2.56-5.973333 2.56-14.506667 4.266667-29.013333 5.12-43.52 5.973333-40.106667 2.56-81.92 5.12-125.44 76.8l82.773333 27.306667z m546.133334-320z"
          fill="#EC407A"/>
    <path d="M854.186667 464.213333c-223.573333 109.226667-486.4 105.813333-706.56-9.386666l-34.133334-17.92v85.333333l34.133334 17.92c220.16 115.2 482.986667 119.466667 706.56 9.386667l57.173333-28.16v-85.333334l-57.173333 28.16z"
          fill="#FFEE58"/>
    <path d="M510.293333 645.973333c-128 0-255.146667-30.72-371.2-91.306666l-34.133333-17.92c-5.973333-2.56-9.386667-8.533333-9.386667-15.36v-85.333334c0-5.973333 3.413333-11.093333 8.533334-14.506666s11.093333-3.413333 17.066666-0.853334l34.133334 17.92c215.04 112.64 473.6 116.053333 691.2 9.386667l57.173333-28.16c5.12-2.56 11.946667-2.56 16.213333 0.853333 5.12 3.413333 7.68 8.533333 7.68 14.506667v85.333333c0 6.826667-3.413333 12.8-9.386666 15.36l-57.173334 28.16c-110.08 54.613333-230.4 81.92-350.72 81.92zM129.706667 511.146667l25.6 13.653333c215.04 112.64 473.6 116.053333 691.2 9.386667l46.933333-23.04v-46.933334l-32.426667 16.213334c-226.986667 110.933333-496.64 106.666667-721.066666-11.093334l-9.386667-5.12v46.933334z m724.48-46.933334z"
          fill="#EC407A"/>
    <path d="M593.066667 915.626667h-162.133334c-184.32 0-334.506667-150.186667-334.506666-334.506667v-145.066667c0-5.973333 3.413333-11.093333 8.533333-14.506666s11.093333-3.413333 17.066667-0.853334l34.133333 17.92c215.04 112.64 473.6 116.053333 691.2 9.386667l57.173333-28.16c5.12-2.56 11.946667-2.56 16.213334 0.853333 5.12 3.413333 7.68 8.533333 7.68 14.506667v145.066667c0 185.173333-150.186667 335.36-335.36 335.36zM129.706667 464.213333V580.266667c0 165.546667 134.826667 300.373333 300.373333 300.373333h162.986667c165.546667 0 300.373333-134.826667 300.373333-300.373333V463.36l-32.426667 16.213333C634.026667 591.36 364.373333 587.093333 139.946667 469.333333l-10.24-5.12z"
          fill="#EC407A"/>
    <path d="M843.093333 461.653333v119.466667c0 175.786667-142.506667 317.44-317.44 317.44h51.2c175.786667 0 317.44-142.506667 317.44-317.44v-145.066667l-51.2 25.6z"
          fill="#F8BBD0"/>
    <path d="M843.093333 461.653333v81.92l51.2-21.333333V436.053333z" fill="#FBC02D"/>
    <path d="M484.693333 543.573333c-116.053333-3.413333-231.253333-33.28-337.066666-88.746666l-34.133334-17.92v26.453333c116.053333 57.173333 244.053333 84.48 371.2 80.213333z"
          fill="#F06292"/>
    <path d="M669.013333 700.586667m-19.626666 0a19.626667 19.626667 0 1 0 39.253333 0 19.626667 19.626667 0 1 0-39.253333 0Z"
          fill="#F48FB1"/>
    <path d="M669.013333 737.28c-20.48 0-36.693333-16.213333-36.693333-36.693333s16.213333-36.693333 36.693333-36.693334 36.693333 16.213333 36.693334 36.693334-16.213333 36.693333-36.693334 36.693333z m0-39.253333c-1.706667 0-2.56 0.853333-2.56 2.56s0.853333 2.56 2.56 2.56 2.56-0.853333 2.56-2.56-0.853333-2.56-2.56-2.56z"
          fill="#EC407A"/>
    <path d="M354.986667 700.586667m-19.626667 0a19.626667 19.626667 0 1 0 39.253333 0 19.626667 19.626667 0 1 0-39.253333 0Z"
          fill="#F48FB1"/>
    <path d="M354.986667 737.28c-20.48 0-36.693333-16.213333-36.693334-36.693333s16.213333-36.693333 36.693334-36.693334 36.693333 16.213333 36.693333 36.693334-16.213333 36.693333-36.693333 36.693333z m0-39.253333c-1.706667 0-2.56 0.853333-2.56 2.56s0.853333 2.56 2.56 2.56c1.706667 0 2.56-0.853333 2.56-2.56s-0.853333-2.56-2.56-2.56z"
          fill="#EC407A"/>
    <path d="M512 855.04c-50.346667 0-101.546667-13.653333-145.92-41.813333-7.68-5.12-10.24-15.36-5.12-23.893334 5.12-7.68 15.36-10.24 23.893333-5.12 77.653333 48.64 177.493333 48.64 255.146667 0 7.68-5.12 18.773333-2.56 23.893333 5.12 5.12 7.68 2.56 18.773333-5.12 23.893334-45.226667 27.306667-96.426667 41.813333-146.773333 41.813333z"
          fill="#EC407A"/>
    <path d="M593.066667 915.626667h-162.133334c-184.32 0-334.506667-150.186667-334.506666-334.506667v-145.066667c0-5.973333 3.413333-11.093333 8.533333-14.506666s11.093333-3.413333 17.066667-0.853334l34.133333 17.92c215.04 112.64 473.6 116.053333 691.2 9.386667l57.173333-28.16c5.12-2.56 11.946667-2.56 16.213334 0.853333 5.12 3.413333 7.68 8.533333 7.68 14.506667v145.066667c0 185.173333-150.186667 335.36-335.36 335.36zM129.706667 464.213333V580.266667c0 165.546667 134.826667 300.373333 300.373333 300.373333h162.986667c165.546667 0 300.373333-134.826667 300.373333-300.373333V463.36l-32.426667 16.213333C634.026667 591.36 364.373333 587.093333 139.946667 469.333333l-10.24-5.12z"
          fill="#EC407A"/>
    <path d="M510.293333 645.973333c-128 0-255.146667-30.72-371.2-91.306666l-34.133333-17.92c-5.973333-2.56-9.386667-8.533333-9.386667-15.36v-85.333334c0-5.973333 3.413333-11.093333 8.533334-14.506666s11.093333-3.413333 17.066666-0.853334l34.133334 17.92c215.04 112.64 473.6 116.053333 691.2 9.386667l57.173333-28.16c5.12-2.56 11.946667-2.56 16.213333 0.853333 5.12 3.413333 7.68 8.533333 7.68 14.506667v85.333333c0 6.826667-3.413333 12.8-9.386666 15.36l-57.173334 28.16c-110.08 54.613333-230.4 81.92-350.72 81.92zM129.706667 511.146667l25.6 13.653333c215.04 112.64 473.6 116.053333 691.2 9.386667l46.933333-23.04v-46.933334l-32.426667 16.213334c-226.986667 110.933333-496.64 106.666667-721.066666-11.093334l-9.386667-5.12v46.933334z m724.48-46.933334z"
          fill="#EC407A"/>
</svg>